<?xml version="1.0" encoding="utf-8"?>
<!-- Generator: Adobe Illustrator 23.1.0, SVG Export Plug-In . SVG Version: 6.00 Build 0)  -->
<svg version="1.1" id="Layer_1" xmlns="http://www.w3.org/2000/svg" xmlns:xlink="http://www.w3.org/1999/xlink" x="0px" y="0px"
	 viewBox="0 0 322.9 96.2" style="enable-background:new 0 0 322.9 96.2;" xml:space="preserve">
<style type="text/css">
	.st0{fill:#28A8CD;}
</style>
<title>Blue Version</title>
<path class="st0" d="M48.8,0L32.3,21.4L15.9,0H6l22.4,28.8v17.6h7.4V28.8L58.2,0H48.8z"/>
<path class="st0" d="M111.4,13.5c-0.9-2.6-2.4-5.1-4.2-7.2c-1.8-2-4-3.6-6.5-4.7C98,0.5,95.1,0,92.2,0H82c-2.8,0-5.6,0.5-8.1,1.6
	c-2.5,1.1-4.7,2.6-6.5,4.6c-1.9,2.1-3.4,4.5-4.3,7.2c-1.1,3-1.6,6.1-1.5,9.3c0,3.2,0.5,6.4,1.5,9.4c0.9,2.7,2.4,5.3,4.3,7.5
	c1.8,2.1,4,3.8,6.5,5c2.5,1.2,5.3,1.8,8.1,1.8h10.3c2.9,0,5.7-0.6,8.3-1.8c2.5-1.2,4.7-2.9,6.5-5c1.9-2.2,3.4-4.7,4.3-7.5
	c1-3,1.6-6.2,1.5-9.4C112.9,19.6,112.4,16.5,111.4,13.5z M104.5,29.2c-0.6,1.8-1.5,3.4-2.8,4.8c-1.2,1.3-2.6,2.4-4.2,3.2
	c-1.7,0.8-3.5,1.2-5.3,1.2H82c-1.8,0-3.6-0.4-5.3-1.2c-1.6-0.8-3-1.8-4.1-3.2c-1.2-1.4-2.1-3.1-2.7-4.8c-0.7-1.9-1-4-1-6.1
	c0-2.1,0.3-4.1,1-6.1c0.6-1.7,1.5-3.4,2.7-4.8C75,9.6,78.4,8,82,8.1h10.3c3.6-0.1,7.1,1.5,9.5,4.2c1.2,1.4,2.2,3,2.8,4.8
	c0.7,1.9,1,4,1,6C105.6,25.1,105.2,27.2,104.5,29.2z"/>
<path class="st0" d="M162.3,0v25.9c0,2-0.2,4-0.8,6c-0.5,1.6-1.4,3-2.6,4.1c-1.4,1.2-3,2-4.7,2.3c-4.8,1-9.8,1-14.6,0
	c-1.7-0.4-3.4-1.2-4.7-2.3c-1.2-1.1-2.1-2.5-2.6-4.1c-0.6-1.9-0.8-4-0.8-6V0H124v25.9c-0.1,3.2,0.4,6.3,1.3,9.4
	c0.8,2.5,2.1,4.8,4,6.6c2,1.8,4.4,3.2,7,3.9c6.9,1.7,14,1.7,20.9,0c2.6-0.7,5-2.1,7-3.9c1.9-1.8,3.2-4.1,4-6.6
	c0.9-3,1.3-6.2,1.3-9.4V0H162.3z"/>
<path class="st0" d="M219.9,32.3c2.7-1.1,5-3.1,6.4-5.7c1.6-3,2.4-6.3,2.3-9.7c0-2.4-0.3-4.7-1-7c-0.6-2-1.6-3.8-3-5.3
	c-1.4-1.5-3-2.7-4.9-3.4c-2-0.8-4.2-1.2-6.4-1.2H183v46.4h7.3V8.1h23c2.2-0.1,4.4,0.7,5.9,2.2c1.4,1.5,2.1,3.7,2.1,6.7
	s-0.7,5.3-2,6.9c-1.5,1.7-3.7,2.5-6,2.4h-17.7v7.2h15.8l10.7,12.9h10.4L219.9,32.3z"/>
<path class="st0" d="M258.4,0v46.4h7.4V0H258.4z"/>
<path class="st0" d="M277.1,0.2v8.1h16v38.3h7.4V8.3h16V0.2H277.1z"/>
<path class="st0" d="M19.8,69.7c-0.5-0.5-1.1-0.9-1.8-1.2c-0.7-0.3-1.4-0.5-2.2-0.4H8.6v12h7.2c0.8,0,1.5-0.1,2.2-0.5
	c0.7-0.3,1.3-0.7,1.8-1.3c0.5-0.6,0.9-1.2,1.2-1.9c0.6-1.6,0.6-3.3,0-4.8C20.7,70.9,20.3,70.2,19.8,69.7z"/>
<path class="st0" d="M0,51.9v44.2h322.9V51.9H0z M23.8,77.5c-0.4,1.1-1,2.1-1.8,3c-1.6,1.7-3.8,2.7-6.2,2.7H5.5V64.8h10.3
	c1.2,0,2.4,0.2,3.5,0.7c1,0.4,2,1.1,2.7,1.8c0.8,0.8,1.4,1.8,1.8,2.9c0.4,1.2,0.7,2.4,0.7,3.7C24.4,75.1,24.2,76.3,23.8,77.5z
	 M55,83.2H39.2V64.8H55V68H42.2v12H55V83.2z M54.3,72.5v2.7h-9.8v-2.7H54.3z M88.3,74.1c-0.3,0.8-0.7,1.5-1.3,2.1
	c-0.6,0.6-1.2,1.1-2,1.4c-0.9,0.3-1.8,0.5-2.7,0.5h-7.1V75h7.1c1,0,1.9-0.3,2.6-1c1.2-1.5,1.2-3.6,0-5.1c-0.7-0.7-1.6-1-2.6-0.9
	h-9.4v15.2h-3.1V64.8h12.4c0.9,0,1.9,0.1,2.7,0.5c0.8,0.3,1.4,0.7,2,1.3c0.6,0.6,1,1.3,1.3,2.1C88.9,70.4,88.9,72.3,88.3,74.1
	L88.3,74.1z M119.1,83.2l-2.7-4.6H108l1.5-2.6h5.4l-4-6.9l-8,14.2h-3.5l10.2-17.7c0.2-0.3,0.4-0.6,0.6-0.8c0.3-0.2,0.6-0.3,0.9-0.3
	c0.3,0,0.6,0.1,0.9,0.3c0.3,0.2,0.5,0.5,0.6,0.8l10.2,17.7L119.1,83.2z M153.4,83.2l-4.5-5.1h-6.6v-2.8h7.4c1,0.1,1.9-0.3,2.5-1
	c0.6-0.8,0.9-1.8,0.9-2.8c0.1-1-0.2-1.9-0.9-2.7c-0.7-0.6-1.6-0.9-2.5-0.8H140v15.2h-3.1V64.8h12.7c0.9,0,1.8,0.1,2.7,0.5
	c0.8,0.3,1.4,0.8,2,1.3c0.6,0.6,1,1.3,1.3,2.1c0.3,0.9,0.5,1.8,0.4,2.8c0,1.4-0.3,2.7-1,3.9c-0.6,1-1.6,1.8-2.7,2.2l5.3,5.6
	L153.4,83.2z M186.7,68H180v15.2h-3.1V68h-6.7v-3.2h16.5V68z M221,83.2l-3.4-13l-5,12c-0.1,0.3-0.4,0.7-0.6,0.9
	c-0.3,0.2-0.6,0.3-0.9,0.3c-0.7,0-1.4-0.5-1.6-1.2l-5-12l-3.4,13h-3l4.5-17.4c0.1-0.8,0.8-1.4,1.5-1.3c0.3,0,0.6,0.1,0.9,0.3
	c0.3,0.2,0.5,0.5,0.6,0.8l5.5,13.1l5.5-13.1c0.2-0.7,0.8-1.1,1.5-1.1c0.7,0,1.2,0.4,1.5,1.3l4.5,17.4H221z M254.2,83.2h-15.8V64.8
	h15.8V68h-12.7v12h12.8V83.2z M253.5,72.5v2.7h-9.9v-2.7H253.5z M287.3,81.5c0,0.5-0.1,1-0.4,1.4c-0.3,0.3-0.7,0.5-1.1,0.5
	c-0.5,0-1.1-0.3-1.4-0.7l-12.5-13v13.5h-3V66.5c0-0.5,0.1-1,0.4-1.4c0.3-0.3,0.7-0.5,1.1-0.5c0.2,0,0.5,0.1,0.7,0.2
	c0.2,0.1,0.5,0.3,0.7,0.5l12.5,12.9V64.6h3V81.5z M318,68h-6.7v15.2h-3.1V68h-6.7v-3.2H318V68z"/>
</svg>
