<svg id="Layer_1" data-name="Layer 1" xmlns="http://www.w3.org/2000/svg" xmlns:xlink="http://www.w3.org/1999/xlink" viewBox="0 0 453.8 164.97"><defs><style>.cls-1{fill:url(#linear-gradient);}.cls-2{fill:url(#linear-gradient-2);}.cls-3{fill:url(#linear-gradient-3);}.cls-4{fill:url(#linear-gradient-4);}.cls-5{fill:url(#linear-gradient-5);}.cls-6{fill:url(#linear-gradient-6);}.cls-7{fill:url(#linear-gradient-7);}.cls-8{fill:url(#linear-gradient-8);}</style><linearGradient id="linear-gradient" x1="183.61" y1="87.16" x2="294.24" y2="145.35" gradientUnits="userSpaceOnUse"><stop offset="0" stop-color="#28a8cd"/><stop offset="1" stop-color="#5f3794"/></linearGradient><linearGradient id="linear-gradient-2" x1="193.19" y1="68.97" x2="303.81" y2="127.15" xlink:href="#linear-gradient"/><linearGradient id="linear-gradient-3" x1="207.41" y1="41.91" x2="318.04" y2="100.09" xlink:href="#linear-gradient"/><linearGradient id="linear-gradient-4" x1="218.42" y1="22.89" x2="329.04" y2="81.07" xlink:href="#linear-gradient"/><linearGradient id="linear-gradient-5" x1="226.33" y1="-5.47" x2="336.95" y2="52.72" xlink:href="#linear-gradient"/><linearGradient id="linear-gradient-6" x1="235.83" y1="-22.74" x2="346.44" y2="35.44" xlink:href="#linear-gradient"/><linearGradient id="linear-gradient-7" x1="56.86" y1="94.3" x2="396.45" y2="212.95" xlink:href="#linear-gradient"/><linearGradient id="linear-gradient-8" x1="119.44" y1="64.25" x2="397.22" y2="161.3" xlink:href="#linear-gradient"/></defs><title>Gradients ,</title><path class="cls-1" d="M132.14,34,115.67,55.37,99.27,34H89.35l22.38,28.8V80.4h7.36V62.78L141.52,34Z"/><path class="cls-2" d="M194.74,47.49a21.57,21.57,0,0,0-4.23-7.19A19,19,0,0,0,184,35.64,20.69,20.69,0,0,0,175.61,34H165.35a20.06,20.06,0,0,0-8.14,1.63,19.26,19.26,0,0,0-6.5,4.59,21,21,0,0,0-4.28,7.19,26.92,26.92,0,0,0-1.54,9.32,27.82,27.82,0,0,0,1.54,9.39,22.89,22.89,0,0,0,4.28,7.5,20.56,20.56,0,0,0,6.5,5,18.5,18.5,0,0,0,8.14,1.81h10.26a19,19,0,0,0,8.29-1.81,20.41,20.41,0,0,0,6.52-5,22.73,22.73,0,0,0,4.29-7.5,27.82,27.82,0,0,0,1.54-9.39A26.9,26.9,0,0,0,194.74,47.49Zm-6.83,15.67A14.59,14.59,0,0,1,185.15,68a12.89,12.89,0,0,1-4.2,3.16,12.34,12.34,0,0,1-5.34,1.15H165.35a12,12,0,0,1-5.25-1.15A12.56,12.56,0,0,1,156,68a14.51,14.51,0,0,1-2.72-4.82,18.08,18.08,0,0,1-1-6.06,17.77,17.77,0,0,1,1-6.07A14.37,14.37,0,0,1,156,46.3a12.23,12.23,0,0,1,9.39-4.21h10.26a12.48,12.48,0,0,1,9.54,4.21,14.39,14.39,0,0,1,2.76,4.76,18.13,18.13,0,0,1,1,6A18.34,18.34,0,0,1,187.91,63.16Z"/><path class="cls-3" d="M245.69,34V59.9a20.7,20.7,0,0,1-.77,6A9.05,9.05,0,0,1,242.36,70a11,11,0,0,1-4.72,2.34,36.92,36.92,0,0,1-14.61,0A10.91,10.91,0,0,1,218.31,70a8.87,8.87,0,0,1-2.55-4.08,20,20,0,0,1-.79-6V34h-7.6V59.9a30.51,30.51,0,0,0,1.29,9.36,15.51,15.51,0,0,0,4,6.6,16.78,16.78,0,0,0,7,3.9,43.17,43.17,0,0,0,20.87,0,16.81,16.81,0,0,0,7-3.9,15.53,15.53,0,0,0,4-6.6,30.83,30.83,0,0,0,1.28-9.36V34Z"/><path class="cls-4" d="M303.22,66.29a13.24,13.24,0,0,0,6.41-5.65,19.13,19.13,0,0,0,2.28-9.74,22.23,22.23,0,0,0-1-7,14.85,14.85,0,0,0-3-5.33A13.17,13.17,0,0,0,303,35.16,16.53,16.53,0,0,0,296.61,34H266.35V80.4h7.31V42.09h22.95a7.84,7.84,0,0,1,5.94,2.2C304,45.76,304.67,48,304.67,51s-.68,5.33-2,6.93a7.47,7.47,0,0,1-6,2.39H279V67.5h15.77l10.67,12.9h10.43Z"/><path class="cls-5" d="M341.78,34V80.4h7.36V34Z"/><path class="cls-6" d="M360.47,34.16v8.11h16V80.58h7.37V42.27h16V34.16Z"/><path class="cls-7" d="M103.13,103.67a5.14,5.14,0,0,0-1.75-1.23,5.36,5.36,0,0,0-2.21-.45H92v12h7.18a5.21,5.21,0,0,0,2.21-.46,5.34,5.34,0,0,0,1.75-1.25,5.55,5.55,0,0,0,1.16-1.92,7.1,7.1,0,0,0,0-4.81A5.32,5.32,0,0,0,103.13,103.67Z"/><path class="cls-8" d="M83.37,85.94v44.22H406.24V85.94Zm23.78,25.6a9.18,9.18,0,0,1-1.79,3,8.24,8.24,0,0,1-6.19,2.7H88.92V98.77H99.17a8.89,8.89,0,0,1,3.46.66,8,8,0,0,1,2.73,1.85,8.62,8.62,0,0,1,1.79,2.86,10.07,10.07,0,0,1,.65,3.67A10.59,10.59,0,0,1,107.15,111.54Zm31.22,5.68H122.54V98.77h15.81V102H125.6v12h12.77Zm-.68-10.73v2.71h-9.82v-2.71Zm34,1.61a6,6,0,0,1-1.26,2.12,5.75,5.75,0,0,1-2,1.38,7.12,7.12,0,0,1-2.74.5h-7.11V109h7.11a3.35,3.35,0,0,0,2.55-1,4,4,0,0,0,0-5.08,3.42,3.42,0,0,0-2.55-.94H156.3v15.23h-3.07V98.77h12.45a7.53,7.53,0,0,1,2.74.47,5.62,5.62,0,0,1,2,1.32,5.71,5.71,0,0,1,1.26,2.07,8.72,8.72,0,0,1,0,5.47Zm30.75,9.12-2.66-4.64h-8.38l1.46-2.61h5.44l-4-6.91-8,14.16h-3.53L193,99.56a2.42,2.42,0,0,1,.63-.76,1.4,1.4,0,0,1,.88-.28,1.35,1.35,0,0,1,.87.28,2.54,2.54,0,0,1,.62.76l10.21,17.66Zm34.28,0-4.49-5.12h-6.62v-2.85H233a3.2,3.2,0,0,0,2.53-1,4,4,0,0,0,.85-2.75,3.62,3.62,0,0,0-.88-2.68A3.45,3.45,0,0,0,233,102h-9.65v15.23H220.3V98.77H233a7.35,7.35,0,0,1,2.7.47,5.46,5.46,0,0,1,2,1.34A5.88,5.88,0,0,1,239,102.7a8.44,8.44,0,0,1,.44,2.8,7.26,7.26,0,0,1-1,3.87,5.37,5.37,0,0,1-2.7,2.24l5.34,5.61ZM270.05,102h-6.72v15.23h-3.1V102h-6.72V98.77h16.54Zm34.33,15.23-3.39-13-5,12a2.54,2.54,0,0,1-.64.9,1.45,1.45,0,0,1-.94.32,1.67,1.67,0,0,1-1.59-1.22l-5-12-3.39,13h-3l4.55-17.36a1.49,1.49,0,0,1,1.54-1.32,1.6,1.6,0,0,1,.91.28,1.76,1.76,0,0,1,.65.81l5.45,13.05,5.46-13.05a1.53,1.53,0,0,1,1.49-1.09c.74,0,1.24.44,1.48,1.32l4.53,17.36Zm33.15,0H321.7V98.77h15.81V102H324.77v12h12.76Zm-.68-10.73v2.71H327v-2.71Zm33.82,9a2.2,2.2,0,0,1-.43,1.43,1.39,1.39,0,0,1-1.11.5,2,2,0,0,1-1.41-.68l-12.45-13v13.5h-2.95V100.47a2.14,2.14,0,0,1,.43-1.41,1.43,1.43,0,0,1,1.15-.52,1.52,1.52,0,0,1,.66.15,2.8,2.8,0,0,1,.66.51l12.5,12.92V98.62h2.95ZM401.36,102h-6.72v15.23h-3.1V102h-6.72V98.77h16.54Z"/></svg>